<?xml version="1.0" encoding="utf-8"?>
<!-- Generator: Adobe Illustrator 25.1.0, SVG Export Plug-In . SVG Version: 6.00 Build 0)  -->
<svg version="1.1" xmlns="http://www.w3.org/2000/svg" xmlns:xlink="http://www.w3.org/1999/xlink" x="0px" y="0px"
	 viewBox="0 0 148.8308716 61.890625" style="enable-background:new 0 0 148.8308716 61.890625;" xml:space="preserve">
<style type="text/css">
	.st0{display:none;}
	.st1{fill:#0093D0;}
</style>
<g id="Layer_5" class="st0">
</g>
<g id="BETA_1_" class="st0">
</g>
<g id="community" class="st0">
</g>
<g id="alteryx">
	<g>
		<path class="st1" d="M24.5860844,46.0681534c-0.152626-0.5131073-0.5816288-0.8279572-1.0971565-0.8279572
			c-0.1389866,0.0068092-0.2667561,0.0160179-0.4333897,0.0544701c-0.7342339,0.1758614-1.1423969,0.2307243-1.7059975,0.2691765
			c-1.071909,0.0524826-1.2613697-0.3669014-1.3318577-1.5713997V27.501358
			c-0.0320549-0.380928-0.2307224-0.7618771-0.5247364-0.9921894l-0.1073627-0.0685005
			c-0.0340443-0.027235-0.0684986-0.0616894-0.1137619-0.0845184c-0.8944473-0.5267429-2.383728-0.9509258-3.6495066-1.2701855
			l-0.0937243-0.0276241c-1.5009108-0.3625126-3.1612358-0.5543919-4.8035326-0.5543919
			c-0.9649563,0-1.8361673,0.0733185-2.1850615,0.1165714c-0.7210045,0.070509-2.6689434,0.3945465-3.3234591,0.6180706
			c-0.1894593,0.0616913-0.8051109,0.3536949-0.8255377,0.9329014c0.011198,0.3012314,0.3512735,1.2657776,0.3512735,1.2657776
			c0.2211251,0.6753521,0.4558473,0.8395653,0.8824492,0.9260921c0.3420653,0.0388641,1.0811176-0.1161613,1.5737987-0.2006779
			c1.2705774-0.2347221,2.100934-0.3236485,2.6961794-0.3304577c0.7686672-0.0116272,1.7356329-0.0228462,2.8696213,0.1413879
			c2.1530056,0.3304558,2.9833832,0.9921913,2.9833832,0.9921913v6.4045677l-0.1894798,0.0068092l-4.6004343,0.1141701
			c-6.1518173,0.1938705-8.9986134,2.634491-8.9573498,7.5521736c-0.0092084,2.2331352,0.6909595,4.0236282,2.0232267,5.1824532
			c1.2385421,1.087925,3.0542822,1.6603241,5.2393432,1.6603241h0.0092087c2.508729,0,4.6665344-0.7730751,6.7694778-2.438221
			l0.2006989-0.1529961l0.102932,0.2307243c0.506319,1.1151619,1.3683224,1.8357582,2.552372,2.1369896
			c0.5311565,0.1481934,1.13801,0.2235031,1.9134846,0.2235031c0.1986885,0,0.3993664-0.011219,0.577219-0.0320358
			c0.7025681-0.0957336,1.6354885-0.2235222,2.6753426-0.7138062c0.5703888-0.2715759,0.9741631-0.6068535,0.9445076-1.2088852
			C24.9854298,47.400032,24.5860844,46.0681534,24.5860844,46.0681534 M15.957592,44.5672646l-0.0821171,0.0616875
			l-0.086916,0.0524635c-1.5305452,1.0582886-3.8157501,1.7652664-5.6907806,1.7652664h-0.0023994
			c-2.7486405-0.059269-3.749651-1.0310364-3.8045325-3.6767426c0.0592909-3.0474739,1.0787182-3.9871826,4.5115294-4.2038765
			l4.7378225-0.2211266l0.2118959-0.0092087l0.2054977-0.0068092V44.5672646z"/>
		<path class="st1" d="M92.5785141,49.7769508h-0.0068359h-2.2307129c-0.3444824,0-0.6316833-0.114151-0.8095398-0.3104401
			c-0.1802444-0.2094765-0.2603607-0.4946938-0.2603607-0.882431V27.3939972
			c-0.015625-0.3989563,0.0869217-0.6885605,0.2900162-0.8828201c0.1778336-0.1798611,0.4422073-0.2575703,0.7983093-0.2575703
			h2.0228348c0.3765335,0,0.6320953,0.0729103,0.8303528,0.239542c0.2031021,0.1710434,0.3104401,0.4514198,0.3036346,0.7890949
			l0.0228271,0.5611992l0.0204468,0.4766655l0.3168335-0.3464947c0.9489212-1.0222359,2.5752029-2.242342,4.9176865-2.242342
			c0.3308716,0,0.9056702,0.0500832,1.4095688,0.1438084c0.4197922,0.0772972,0.5796127,0.5038986,0.5499802,0.7254124
			c0,0.1137619-0.0048218,0.2006779-0.0184402,0.2803955l-0.3328552,2.1373997
			c-0.0228271,0.3717175-0.3649139,0.6453056-0.6501083,0.6453056c-0.259964-0.0092297-0.4061737-0.0296555-0.5704041-0.0592899
			c-0.2439346-0.0364437-0.5175171-0.0889263-1.0009918-0.0889263c-1.5625992,0-3.309845,1.0378437-4.4754791,2.6457062
			L93.66642,32.209156v0.0684776v16.3064461c0,0.3649139-0.0889282,0.6521187-0.2711716,0.8596039
			C93.2173996,49.6535912,92.9253922,49.7769508,92.5785141,49.7769508"/>
		<path class="st1" d="M73.964035,24.8304062c-5.7504654,0-10.0841179,4.0028095-10.0841179,13.1039658
			c0,8.343689,3.9094734,12.4422112,11.2633705,12.4422112c1.1632309,0,2.5475693-0.1365891,3.8706131-0.4057655
			c0.2074814-0.0388412,0.4197922-0.0957336,0.6272736-0.1413841c0.8347702-0.2303352,1.6787643-0.5772209,1.9887924-0.7230148
			c0.4610367-0.1758423,0.8167419-0.5315475,0.8439789-0.9761734c-0.1253738-0.664135-0.294014-1.3414764-0.4878845-1.9935951
			c-0.1758423-0.4382095-0.5728073-0.7141953-0.9809723-0.6889687c-0.1389847,0-2.1165619,0.4290009-2.2307129,0.4630661
			c-1.1335983,0.2920036-2.3769379,0.463047-3.5377579,0.463047c-5.2301331,0-6.7879105-2.4999123-6.7879105-7.641098v-0.3785324
			h13.7015915c0.4057617-0.0368538,0.7206116-0.3444824,0.7774811-0.7506599c0-0.054882,0.0047989-0.1161613,0.0140305-0.1778488
			c0.0452652-0.8988571,0.0748978-1.8429756,0.0748978-2.6048546C83.0167084,28.5047684,79.9492188,24.8304062,73.964035,24.8304062
			 M78.7743759,35.43647H68.498764c0.1414108-5.1844597,2.118988-7.303421,5.3691254-7.303421
			c3.1640472,0,4.9545364,1.7360229,4.9545364,5.8005219C78.8224258,34.2528114,78.8224258,35.0603409,78.7743759,35.43647"/>
		<path class="st1" d="M106.394249,59.3179169h-0.1482162c-0.8075256,0-1.4780579-0.0568733-2.1305695-0.1870613
			c-0.4013748-0.070507-0.5495682-0.5928268-0.4698715-1.3066292c0,0,0.0480728-0.7618599,0.1618347-1.3002129
			c0.1073456-0.5475845,0.3673096-0.7963333,0.6569138-0.7963333h0.0116272h0.070488l0.2215195,0.0092278
			c0.1321793,0.0092087,0.3192368,0.0344353,0.4926758,0.0480537c0.3989792,0.0432701,0.8051376,0.086525,1.1219711,0.086525
			c2.6709595-0.0296364,4.1125793-1.0058098,5.1343994-3.4804726l1.2317429-3.0086098l0.1165466-0.3192596l0.0432739-0.1325684
			l-0.0432739-0.1438065l-8.2275238-21.7552662c-0.0364456-0.0957336-0.0476685-0.1938686-0.0476685-0.282793
			c0-0.0845184,0.0112228-0.239542,0.1253738-0.3697319c0.0845184-0.0913277,0.2303314-0.1574249,0.3901596-0.1574249h3.1179581
			c0.4538345,0,0.7915115,0.239542,0.891655,0.5884361l5.4171753,15.5858269l0.3605042,1.0422554l0.3717194-1.0422554
			l5.5998459-15.4692764c0.1185837-0.4333916,0.4698563-0.7117958,0.8780441-0.7117958h0.0228195l0.0845184,0.0068092h2.5864182
			c0.2099075,0,0.3649139,0.0412636,0.4722748,0.1277905c0.1073456,0.0913239,0.1506195,0.2303123,0.1437836,0.3332653
			c0,0.1482162-0.036438,0.2735863-0.080101,0.3945484l-9.2032928,24.6953945
			C113.7637787,57.2742615,111.2230148,59.3179169,106.394249,59.3179169"/>
		<path class="st1" d="M143.4866028,49.7176819c-0.535965,0-0.9785767-0.2511711-1.2293243-0.7117996l-4.9176788-7.5910339
			l-0.1734467-0.2551727l-0.1662292,0.2551727l-4.9108887,7.5842056c-0.259964,0.4674568-0.7025909,0.7186279-1.2453461,0.7186279
			l-0.0801086-0.0092316h-2.6276855c-0.2142944,0-0.3693161-0.0524597-0.4994888-0.1481934
			c-0.1297989-0.1073647-0.2211227-0.294426-0.2050858-0.4722786c0-0.2190933,0.0752869-0.4494247,0.2050858-0.6384773
			l7.114357-10.7959328l0.0821228-0.1093521l-0.0821228-0.1117554l-6.5555725-10.1045437
			c-0.1161652-0.1870594-0.1730499-0.3464947-0.1686401-0.4970913c0-0.424202,0.3901367-0.6797619,0.7618561-0.6845589h2.4678497
			l0,0c0.5315552,0,0.9489441,0.2307224,1.1315918,0.593214l4.6164703,7.0026226l0.1618347,0.2415314l0.1574097-0.2415314
			l4.591629-6.9593487c0.2050934-0.4037762,0.6272888-0.636488,1.1083527-0.636488h2.5275421
			c0.3649139,0,0.7638702,0.2603569,0.7638702,0.6821404c0,0.1530151-0.0568695,0.3124504-0.1730347,0.4814835l-6.5555878,10.12257
			l-0.077713,0.1117554l0.077713,0.1093521l7.0935364,10.7730865c0.1530151,0.2118988,0.2283173,0.4334106,0.2283173,0.6501274
			c0.0136261,0.1890488-0.0729065,0.3761101-0.1986694,0.4834747c-0.1345978,0.0957336-0.2916107,0.1481934-0.5131226,0.1481934
			h-2.6116638L143.4866028,49.7176819z"/>
		<path class="st1" d="M36.9626045,49.7793503c-1.1612244,0-2.2807961-0.1870613-3.2525597-0.5407524
			c-0.8896484-0.3100319-1.594635-0.7550507-2.0961342-1.3070221c-1.3983459-1.5373535-1.5213165-3.45084-1.5397549-5.9783745
			v-24.148222c0-0.1414089,0.0616913-0.2851944,0.1526279-0.3921471c0.8283463-0.9260941,1.8978539-1.6174622,3.1820488-2.0528831
			c0.0797195-0.0296354,0.1345787-0.0296354,0.1986694-0.0296354c0.1025429,0,0.3737297,0.0180273,0.5952454,0.2347231
			c0.1982765,0.2054968,0.2920036,0.4858894,0.2896042,0.8532009v25.6879787
			c0.0092087,1.3366776,0.3284683,2.3993568,0.9168816,3.0630798c0.5019112,0.5519714,1.3138313,0.8327751,2.3472862,0.8327751
			c0.2507591,0,0.5335541-0.0208359,0.8712311-0.0616875c0.7526512-0.1073647,1.4756622-0.3192596,1.9523277-0.4698563
			c0.1301689-0.054882,0.2463493-0.0797157,0.3853378-0.0797157c0.408577,0,0.7642784,0.2896042,0.9012566,0.7182159
			c0,0,0.3649101,1.2341118,0.4105835,1.8157387c0.0296364,0.5018883-0.4197922,0.8395653-0.8347664,0.9853821
			C40.9133453,49.1224365,39.0475235,49.7793503,36.9626045,49.7793503"/>
		<path class="st1" d="M59.5254021,46.0953865c-0.1365891-0.4309883-0.4926796-0.718605-0.9120636-0.718605
			c-0.1301918,0-0.2531624,0.0252495-0.3809509,0.0753098c-0.6933594,0.223526-1.7380295,0.5111198-2.721405,0.5291443
			l-0.1049423,0.0160179c-1.0602798,0-1.8565941-0.2896042-2.3653145-0.8483849
			c-0.478672-0.5267258-0.8231583-1.382328-0.8507843-2.9857826c0-0.0340424,0-0.059269,0-0.0889244l0.1325684-12.7162094h5.2024918
			c0.2784042,0,0.5087166-0.0320339,0.723423-0.1962681c0.2599678-0.2026882,0.3008232-0.538353,0.294014-0.7230148V26.837635
			c0.0068092-0.3444862-0.0957336-0.593235-0.2896042-0.7506599c-0.2303314-0.1662254-0.4858932-0.1802502-0.6821594-0.1802502
			h-5.2481651v-0.0729084v-5.3691235v-2.4750538c0-0.3737297-0.0913239-0.647707-0.2851944-0.8508053
			c-0.2166901-0.211895-0.4974976-0.2371216-0.5952225-0.2371216c-0.0664902,0-0.1233826,0-0.2215157,0.0296364
			c-0.3032227,0.1117516-1.1219711,0.3969669-2.0164185,1.0266457c-0.310051,0.2255135-0.6248779,0.5062981-0.9417191,0.8255577
			c-0.086937,0.1093521-0.1369972,0.2463303-0.1369972,0.3809299l-0.12537,6.6601257h-2.6869698
			c-0.2623711,0-0.5475616,0.0664883-0.7506409,0.2807846c-0.2026863,0.2211246-0.2531586,0.4951-0.2531586,0.7754955v1.4620476
			c0.0047989,0.3148499-0.0088196,0.5884151,0.2351303,0.8551922c0.2759857,0.2535496,0.5451622,0.2327328,0.8575935,0.2443409
			h2.525135l-0.2395401,11.9611607l0.0044098,0.5131035c0.0092087,2.5343704,0.1321793,4.4570618,1.5349541,6.0104332
			c1.0791092,1.1700439,3.0406647,1.8429756,5.3739204,1.8521843c2.1101646,0,3.750061-0.5591698,4.5003128-0.8692017
			c0.4013557-0.168644,0.8531837-0.4927025,0.8347664-0.9946136C59.9359856,47.4388733,59.5254021,46.0953865,59.5254021,46.0953865
			"/>
	</g>
</g>
</svg>
