<svg width="721" height="771" viewBox="0 0 721 771" fill="none" xmlns="http://www.w3.org/2000/svg">
<path fill-rule="evenodd" clip-rule="evenodd" d="M494.918 318.469C479.577 319.933 464.931 327.332 456.883 332.236C448.835 337.14 442.683 342.414 435.224 345.442C427.765 348.471 416.851 352.201 412.617 352.912C408.382 353.622 395.421 354.731 388.999 354.731C382.577 354.731 367.894 352.025 365.33 351.147C362.766 350.27 350.207 346.139 346.01 343.598C341.813 341.057 333.205 336.921 326.048 330.358C318.891 323.794 312.559 318.187 307.16 309.371C301.76 300.556 297.255 293.186 294.455 283.122C291.655 273.057 289.304 267.485 289.754 249.277C290.203 231.07 292.647 225.376 294.095 220.527C295.543 215.678 299.306 208.079 300.444 205.959C301.582 203.839 305.946 196.346 305.946 196.346L299.019 204.807C299.019 204.807 297.534 206.468 294.455 213.105C291.377 219.741 288.619 225.875 285.625 233.401C282.632 240.928 278.923 254.198 277.585 261.721C276.247 269.244 274.573 281.087 274.573 288.272C274.573 295.457 276.091 314.488 276.091 318.469C276.091 322.451 279.439 336.742 280.531 340.497C281.622 344.251 285.285 355.501 286.852 359.698C288.418 363.894 296.206 380.466 297.095 381.689C297.984 382.912 308.141 398.806 310.739 402.197C313.337 405.588 322.686 416.246 326.048 419.662C329.409 423.078 345.993 437.105 349.079 439.443C352.165 441.781 363.014 448.342 365.929 450.033C368.843 451.724 375.154 454.417 380.709 457.22C386.264 460.024 391.241 461.587 395.183 463.045C399.125 464.504 408.298 467.064 414.976 468.296C421.653 469.527 435.99 472.46 442.805 472.46C449.621 472.46 465.828 472.591 473.641 471.63C481.455 470.668 498.594 467.492 502.254 466.263C505.914 465.035 522.207 459.593 525.753 457.918C529.3 456.243 546.388 447.005 551.025 444.443C555.663 441.881 567.606 433.39 568.719 432.588C569.833 431.786 572.98 429.229 574.901 426.127C576.822 423.024 580.176 417.166 580.556 408.525C580.784 403.339 580.81 397.821 579.944 390.832C578.494 379.126 573.984 364.997 566.308 352.912C560.386 343.586 553.554 336.124 544.901 330.358C525.034 317.117 510.259 317.005 494.918 318.469Z" fill="url(#paint0_linear)"/>
<path fill-rule="evenodd" clip-rule="evenodd" d="M466.308 178.377C466.308 178.377 463.378 175.024 462.099 173.622C459.735 171.033 457.794 169.065 456.305 167.618C452.764 164.178 448.717 160.537 445.115 157.498C441.513 154.459 433.869 148.539 425.897 143.544C417.926 138.549 405.477 131.952 399.296 129.614C393.813 127.54 386.687 124.897 379.089 122.729C371.337 120.518 363.101 118.793 356.201 117.89C349.51 116.915 340.802 115.918 329.216 116.068C317.76 116.068 307.812 117.245 300.782 118.496C297.057 119.158 287.429 120.862 276.889 124.172C266.348 127.482 257.403 131.205 251.511 134.244C245.2 137.499 236.182 142.305 227.592 148.307C219.002 154.308 211.362 160.98 207.244 164.983C203.436 168.686 196.058 175.953 189.379 184.37C181.508 194.288 174.286 206.353 172.042 211.077C170.061 215.248 165.599 223.748 162.242 233.3C158.886 242.852 156.149 253.379 154.991 258.844C153.833 264.309 152.433 275.184 152.133 279.616C151.834 284.048 151.477 291.19 151.456 295.495C151.425 301.996 151.808 307.61 152.133 310.828C152.295 312.43 154.218 326.917 154.991 330.659C155.764 334.402 157.981 343.637 160.331 350.028C161.295 352.649 162.939 358.387 165.707 364.718C169.688 373.825 175.595 384.414 182.17 394.367C193.315 411.238 212.137 431.008 221.697 439.352C226.453 443.503 234.119 450.632 245.535 458.505C256.952 466.378 267.695 472.755 278.923 478.408C290.152 484.06 299.823 488.21 314.533 493.006C329.243 497.802 342.695 500.521 357.799 502.707C365.387 503.805 375.519 505.005 389.561 505.005C403.602 505.005 420.211 503.499 430.447 502.057C435.37 501.363 446.238 499.581 460.454 495.538C474.669 491.496 487.068 486.646 492.177 484.388C496.846 482.324 507.656 477.534 516.642 472.343C525.629 467.151 537.762 459.143 541.775 456.014C545.622 453.014 552.77 448.04 562.005 439.652C565.091 436.849 572.648 429.128 572.648 429.128C572.648 429.128 558.076 440.31 545.676 447.015C533.277 453.72 514.191 461.861 502.239 465.162C490.287 468.464 475.889 471.236 457.826 471.703C447.458 471.971 433.314 470.857 424.702 469.455C416.091 468.053 407.575 465.897 399.572 463.435C389.514 460.341 379.287 455.586 369.669 450.788C361.324 446.626 354.56 441.517 347.809 436.993C344.907 435.048 338.245 429.529 330.861 422.826C325.133 417.626 319.54 411.197 314.741 405.304C311.336 401.123 308.26 397.014 306.148 393.566C300.399 384.182 292.864 372.215 287.781 358.809C284.989 351.447 282.385 344.172 280.728 336.651C278.875 328.238 277.029 317.934 276.006 305.223C275.375 297.375 275.758 288.576 276.366 278.826C277.034 268.095 278.577 259.573 281.948 247.206C285.319 234.838 289.457 225.347 291.241 221.66C292.155 219.77 296.964 210.395 302.647 201.409C308.33 192.423 313.848 185.339 316.659 182.577C319.705 179.584 326.014 172.932 333.462 167.833C340.91 162.733 349.106 158.46 354.813 156.298C366.5 151.872 382.854 148.307 397.703 149.43C405.714 150.035 412.867 150.781 420.764 153.186C423.589 154.046 426.282 154.873 428.693 155.769C433.02 157.378 436.488 159.014 438.531 160.064C441.712 161.699 446.558 164.191 452.042 168.126C454.806 170.108 457.524 172.243 460.766 175.01C462.125 176.17 465.342 179.273 465.342 179.273L466.308 178.377Z" fill="url(#paint1_linear)"/>
<path fill-rule="evenodd" clip-rule="evenodd" d="M466.693 180.898C482.107 192.526 513.629 190.417 533.108 183.199C552.587 175.981 566.972 162.101 576.167 143.475C585.363 124.849 583.697 95.8718 573.513 80.6596C563.33 65.4473 554.483 58.4989 543.019 50.0435C527.693 38.7398 511.612 29.3346 494.835 21.9081C478.308 15.1935 461.479 9.02536 444.324 5.52721C421.19 0.810147 399.003 -1.28047 372.293 0.810147C325.697 4.45718 288.33 20.9187 268.217 32.2391C248.103 43.5595 216.437 65.1991 190.128 100.287C183.005 109.787 176.721 118.886 171.14 128.979C167.536 135.495 164.746 141.017 160.891 149.522C152.979 166.974 145.81 189.449 141.877 212.166C139.663 224.948 139.31 235.911 138.954 245.771C138.148 268.07 140.718 284.249 142.541 295.436C145.158 311.49 148.192 323.225 154.35 340.008C159.871 355.057 166.871 368.716 169.775 373.21C168.723 368.671 161.629 353.291 156.921 333.547C154.116 321.783 152.539 307.864 152.539 295.436C152.539 279.166 153.83 259.397 162.339 236.642C170.847 213.887 177.642 201.586 190.128 185.691C196.794 177.206 205.793 167.499 215.288 159.282C224.163 151.6 233.489 145.27 241.25 141.017C258.857 131.369 274.902 125.203 287.218 122.392C296.181 120.346 305.646 118.529 315.398 117.879C334.87 116.581 358.507 118.153 373.47 122.392C388.433 126.63 394.357 128.358 402.794 132.397C416.679 139.043 426.713 145.375 435.58 151.812C441.292 155.959 447.189 161.518 451.65 166.178C456.111 170.839 457.095 173.266 466.693 180.898Z" fill="url(#paint2_linear)"/>
<mask id="mask0" mask-type="alpha" maskUnits="userSpaceOnUse" x="0" y="620" width="721" height="151">
<path d="M0 620.655H721V771H0V620.655Z" fill="white"/>
</mask>
<g mask="url(#mask0)">
<path fill-rule="evenodd" clip-rule="evenodd" d="M644.939 720.199C644.82 723.852 645.421 727.948 646.023 731.78C646.621 735.612 647.67 739.002 649.17 741.945C650.67 744.895 652.86 747.281 655.737 749.109C658.618 750.938 662.397 751.85 667.079 751.85H684.171V687.117H664.916C660.357 687.117 657.6 688.545 654.596 690.8C651.592 693.056 649.501 696.713 648.179 699.599C646.86 702.488 646.023 705.729 645.66 709.324C645.302 712.92 645.063 716.546 644.939 720.199ZM688.332 667.673C697.167 667.673 708.382 667.459 713.287 668.887C718.189 670.311 719.928 674.853 720.695 678.078C721.463 681.296 720.996 693.537 720.996 696.587C720.996 711.023 720.996 721.333 720.996 727.516C720.996 733.7 720.996 742.979 720.996 755.346C720.996 758.404 720.996 760.034 720.996 761.183C720.996 763.175 720.996 765.866 719.002 767.969C717.012 770.069 715.74 770.962 708.671 770.962C705.327 770.962 699.747 770.962 695.497 770.962C692.007 770.775 691.178 770.191 690.306 769.733C689.439 769.275 686.72 767.969 685.023 762.331C680.098 769.366 666.289 770.962 654.777 770.962C648.819 770.962 640.423 770.099 633.501 767.969C626.571 765.836 621.959 762.835 618.53 759.728C611.411 753.3 605.634 744.231 605.634 720.703C605.634 697.175 614.763 685.934 620.794 679.781C626.818 673.628 639.548 668.937 648.9 668.288C657.82 667.673 661.931 667.673 688.332 667.673ZM595.43 741.945C595.38 743.254 595.253 744.227 595.049 744.865C594.813 745.601 594.281 746.689 593.452 748.136C587.814 756.152 581.482 761.954 574.467 765.553C567.448 769.145 558.898 770.947 548.821 770.947C541.143 770.947 533.708 769.679 526.504 767.145C519.308 764.61 512.918 761.041 507.342 756.446C501.761 751.85 497.261 746.338 493.844 739.914C490.423 733.49 488.715 726.387 488.715 718.607C488.715 710.592 490.246 703.431 493.304 697.125C496.362 690.82 500.531 685.453 505.811 681.036C511.09 676.616 517.237 673.257 524.256 670.96C531.278 668.658 538.687 667.612 546.481 667.612C551.521 667.612 556.052 667.803 560.067 668.395C564.085 668.982 567.838 669.986 571.316 671.399C574.794 672.815 578.123 674.731 581.304 677.147C584.486 679.559 587.694 682.54 590.93 686.071C592.492 688.312 593.271 690.613 593.271 692.969C593.271 696.27 591.983 699.041 589.403 701.282C586.823 703.523 583.849 704.641 580.494 704.641C577.375 704.641 574.197 703.282 570.957 700.572C569.519 699.396 568.046 698.156 566.546 696.862C565.049 695.564 563.399 694.354 561.598 693.236C559.797 692.114 557.849 691.201 555.748 690.495C553.65 689.789 551.282 689.434 548.644 689.434C544.68 689.434 541.352 690.258 538.656 691.911C535.956 693.556 533.766 695.713 532.088 698.362C530.407 701.019 529.208 704.049 528.486 707.469C527.769 710.886 527.407 714.367 527.407 717.897C527.407 721.554 527.796 725.15 528.575 728.688C529.358 732.223 530.646 735.376 532.443 738.147C534.244 740.918 536.554 743.159 539.373 744.865C542.192 746.575 545.582 747.43 549.543 747.43C552.902 747.43 555.57 747.25 557.549 746.899C559.531 746.544 561.301 745.895 562.859 744.953C564.417 744.01 565.948 742.743 567.448 741.151C568.944 739.559 570.896 737.586 573.294 735.227C576.056 732.166 579.233 730.631 582.835 730.631C586.314 730.631 589.283 731.692 591.74 733.814C594.2 735.937 595.43 738.647 595.43 741.945ZM468.453 638.335C468.453 640.694 468.002 642.843 467.103 644.79C466.205 646.733 464.944 648.443 463.324 649.916C461.704 651.393 459.842 652.539 457.744 653.363C455.646 654.191 453.456 654.6 451.176 654.6C446.379 654.6 442.299 653.069 438.94 650.004C435.581 646.943 433.903 643.049 433.903 638.335C433.903 633.385 435.523 629.201 438.759 625.785C441.998 622.365 446.14 620.655 451.176 620.655C456.217 620.655 460.355 622.365 463.594 625.785C466.834 629.201 468.453 633.385 468.453 638.335ZM472.051 687.151V770.954H432.461V687.151C432.461 684.556 433.001 682.082 434.081 679.723C435.161 677.368 436.599 675.303 438.4 673.536C440.197 671.765 442.295 670.353 444.698 669.292C447.1 668.234 449.618 667.7 452.256 667.7C454.778 667.7 457.235 668.234 459.637 669.292C462.036 670.353 464.192 671.765 466.112 673.536C468.033 675.303 469.533 677.368 470.613 679.723C471.693 682.082 472.175 684.556 472.051 687.151ZM341.222 720.199C341.222 724.26 341.7 727.948 342.301 731.78C342.899 735.612 343.744 739.395 345.244 742.342C346.744 745.288 348.267 748.796 351.908 751.602C355.548 754.411 358.676 755.411 363.358 755.411H376.134V687.117H361.198C356.64 687.117 354.094 687.728 350.724 690.339C347.353 692.949 345.707 696.526 344.388 699.415C343.069 702.297 342.301 705.729 341.943 709.324C341.58 712.92 341.222 716.134 341.222 720.199ZM374.78 667.635L374.746 620.655H414.336V758.236C414.336 761.652 413.044 764.633 410.468 767.168C407.888 769.698 404.857 770.966 401.378 770.966H347.033C338.275 770.966 330.736 770.481 324.616 768.473C318.496 766.469 313.648 762.415 309.873 758.411C306.093 754.404 303.363 746.575 301.682 740.62C300.004 734.67 299.163 727.742 299.163 719.844C298.924 710.179 300.093 701.358 303.151 694.877C306.213 688.396 310.771 681.136 316.348 677.303C321.928 673.471 328.526 670.849 336.147 669.433C343.763 668.02 352.02 667.635 361.102 667.635H374.78ZM228.209 687.514C221.969 687.514 217.083 690.316 213.543 695.915C210.002 701.511 208.232 709.79 208.232 720.753C208.232 731.715 210.002 739.998 213.543 745.598C217.083 751.197 221.969 753.995 228.209 753.995C234.445 753.995 239.334 751.197 242.875 745.598C246.411 739.998 248.181 731.715 248.181 720.753C248.181 713.916 247.583 708.347 246.384 704.046C245.185 699.744 243.654 696.354 241.795 693.877C239.936 691.404 237.807 689.724 235.405 688.842C233.006 687.957 230.607 687.514 228.209 687.514ZM228.926 770.966C221.128 771.198 213.693 770.363 206.613 767.775C199.536 765.179 193.235 761.526 187.716 756.812C182.197 752.094 177.82 746.468 174.581 739.926C171.342 733.383 169.722 726.28 169.722 718.619C169.722 710.718 171.342 704.958 174.581 698.473C177.82 691.988 182.167 686.449 187.627 681.853C193.084 677.254 199.386 673.689 206.524 671.154C213.662 668.62 221.128 667.673 228.926 667.673C236.728 667.673 244.194 668.62 251.332 671.154C258.47 673.689 264.768 677.254 270.228 681.853C275.685 686.449 280.035 691.988 283.275 698.473C286.514 704.958 288.134 710.718 288.134 718.619C288.134 726.28 286.514 733.383 283.275 739.926C280.035 746.468 275.654 752.094 270.136 756.812C264.621 761.526 258.293 765.179 251.154 767.775C244.012 770.363 236.608 771.198 228.926 770.966ZM159.283 741.945C159.232 743.254 159.105 744.227 158.901 744.865C158.665 745.601 158.133 746.689 157.304 748.136C151.666 756.152 145.338 761.954 138.319 765.553C131.3 769.145 122.754 770.947 112.674 770.947C104.995 770.947 97.5563 769.679 90.3602 767.145C83.1603 764.61 76.774 761.041 71.1937 756.446C65.6135 751.85 61.1168 746.338 57.6962 739.914C54.2794 733.49 52.5671 726.387 52.5671 718.607C52.5671 710.592 54.0981 703.431 57.1563 697.125C60.2144 690.82 64.3832 685.453 69.6627 681.036C74.9422 676.616 81.0893 673.257 88.1119 670.96C95.1306 668.658 102.535 667.685 110.333 667.685C115.373 667.685 119.901 667.803 123.923 668.395C127.941 668.982 131.69 669.986 135.168 671.399C138.647 672.815 141.975 674.731 145.156 677.147C148.334 679.559 151.546 682.54 154.786 686.071C156.344 688.312 157.123 690.613 157.123 692.969C157.123 696.27 155.835 699.041 153.255 701.282C150.675 703.523 147.705 704.641 144.347 704.641C141.227 704.641 138.049 703.282 134.81 700.572C133.367 699.396 131.902 698.156 130.398 696.862C128.901 695.564 127.251 694.354 125.45 693.236C123.649 692.114 121.702 691.201 119.604 690.495C117.502 689.789 115.134 689.434 112.492 689.434C108.536 689.434 105.208 690.258 102.508 691.911C99.8085 693.556 97.618 695.713 95.9366 698.362C94.2591 701.019 93.0597 704.049 92.3386 707.469C91.6174 710.886 91.2588 714.367 91.2588 717.897C91.2588 721.554 91.6483 725.15 92.4273 728.688C93.2063 732.223 94.4982 735.376 96.2991 738.147C98.0962 740.918 100.406 743.159 103.225 744.865C106.048 746.575 109.434 747.43 113.395 747.43C116.754 747.43 119.422 747.25 121.405 746.899C123.383 746.544 125.153 745.895 126.711 744.953C128.269 744.01 129.8 742.743 131.3 741.151C132.8 739.559 134.748 737.586 137.147 735.227C139.908 732.166 143.089 730.631 146.687 730.631C150.166 730.631 153.135 731.692 155.596 733.814C158.052 735.937 159.283 738.647 159.283 741.945ZM17.2768 731.07C22.3172 731.07 26.4552 732.78 29.6946 736.196C32.934 739.616 34.5498 743.8 34.5498 748.751C34.5498 751.109 34.1025 753.258 33.2001 755.205C32.3015 757.152 31.0443 758.858 29.4246 760.335C27.8011 761.805 25.9461 762.954 23.8444 763.782C21.7465 764.606 19.556 765.019 17.2768 765.019C12.4756 765.019 8.39932 763.488 5.04037 760.419C1.68141 757.354 0 753.468 0 748.751C0 743.8 1.6197 739.616 4.85911 736.196C8.09852 732.78 12.2365 731.07 17.2768 731.07ZM17.2768 673.368C22.3172 673.368 26.4552 675.078 29.6946 678.494C32.934 681.914 34.5498 686.098 34.5498 691.049C34.5498 693.407 34.1025 695.56 33.2001 697.507C32.3015 699.446 31.0443 701.16 29.4246 702.629C27.8011 704.103 25.9461 705.256 23.8444 706.08C21.7465 706.901 19.556 707.317 17.2768 707.317C12.4756 707.317 8.39932 705.786 5.04037 702.721C1.68141 699.656 0 695.766 0 691.049C0 686.098 1.6197 681.914 4.85911 678.494C8.09852 675.078 12.2365 673.368 17.2768 673.368Z" fill="#ED3E44"/>
</g>
<defs>
<linearGradient id="paint0_linear" x1="516.482" y1="267.834" x2="291.027" y2="267.834" gradientUnits="userSpaceOnUse">
<stop stop-color="#F87179"/>
<stop offset="1" stop-color="#BD1010"/>
</linearGradient>
<linearGradient id="paint1_linear" x1="154.986" y1="122.574" x2="154.986" y2="505.005" gradientUnits="userSpaceOnUse">
<stop stop-color="#BF0404"/>
<stop offset="1" stop-color="#EA5151"/>
</linearGradient>
<linearGradient id="paint2_linear" x1="529.388" y1="-27.7077" x2="173.903" y2="-27.7077" gradientUnits="userSpaceOnUse">
<stop stop-color="#F77279"/>
<stop offset="1" stop-color="#ED3E44"/>
</linearGradient>
</defs>
</svg>
