<?xml version="1.0" encoding="UTF-8"?>
<svg width="90px" height="90px" viewBox="0 0 90 90" version="1.1" xmlns="http://www.w3.org/2000/svg" xmlns:xlink="http://www.w3.org/1999/xlink">
    <title>B4572AAE-E9DE-489F-90DA-D4B13645C6CD</title>
    <defs>
        <path d="M14.2502283,54.3286107 L36.3851532,76.8589705 C38.1897411,78.6635584 40.3086493,79.5319634 42.9324642,79.5319634 L68.1852471,79.5319634 C70.7137384,79.5319634 72.8210774,78.6611622 74.6830283,76.8357201 C76.5287379,75.0262009 77.4055509,72.9631115 77.4055509,70.4576825 L77.4055509,25.19058 C77.4055509,24.6583478 77.2937333,24.3206747 76.9460634,23.8270847 C76.6829676,23.4535652 75.6595072,22.8870794 75.0201664,22.8861273 C73.4998773,22.922448 72.8816867,23.2664245 72.6677577,23.6012813 C72.2012934,24.3917823 72.0593088,24.7864549 72.0592223,25.2146134 L71.9351463,42.445317 L65.2598997,42.4212835 L65.2598997,15.8451136 C65.2598997,15.3066222 65.0424897,14.6932918 64.6890094,14.327954 C64.3364635,13.921508 63.4300288,13.5658959 62.3824797,13.5658959 C61.2348362,13.5658959 60.4211698,13.8689499 59.8888663,14.501064 C59.6966386,14.6932918 59.4792286,15.3066222 59.4792188,15.8531914 L59.4148992,42.4293613 L52.7395759,42.4212835 L52.7395759,12.7786325 C52.7395759,12.1626133 52.5535157,11.6214375 52.4029495,11.4708713 C51.5861198,10.6540416 51.2391201,10.4751319 49.9705322,10.4751319 C48.6192094,10.4751319 47.9886148,10.7755602 47.2933037,11.4708713 C47.1427376,11.6214375 46.9566774,12.1626133 46.9566482,12.7646743 L47.0806156,42.4073253 L40.4053652,42.4401735 L40.2813443,20.5178468 C40.2813443,19.9957233 40.074611,19.4228227 39.8717066,19.2199183 C39.2295152,18.5777269 38.4875837,18.2143462 37.5585847,18.2143462 C36.5955734,18.2143462 35.747144,18.6167327 35.1439585,19.2199183 C34.941054,19.4228227 34.7343207,19.9957233 34.7343207,20.5178468 L34.7343207,63.8090491 L17.1646878,52.2149691 C17.080506,52.1883575 16.9874013,52.1753206 16.872155,52.1753206 C16.6783745,52.1753206 16.6243733,52.1943799 16.5618901,52.2479369 L15.6455518,53.0333697 C15.4984288,53.1675973 15.3350334,53.3178073 15.1574992,53.4820854 C14.8800997,53.738772 14.575429,54.0230571 14.2502283,54.3286107 Z M71.9352328,16.6234908 C72.8423877,16.3794115 73.844771,16.2376491 74.94045,16.2117463 C77.9013526,16.2117463 80.9265095,17.886172 82.4034827,19.9830442 C83.5270357,21.5781627 84.080884,23.2507042 84.080884,25.19058 L84.080884,70.4576825 C84.080884,74.7666901 82.4753323,78.5444587 79.3562382,81.6023942 C76.2533852,84.6444069 72.4711923,86.2072965 68.1852471,86.2072965 L42.9324642,86.2072965 C38.5471443,86.2072965 34.7278468,84.6420106 31.6441874,81.5581665 L4.7496815,54.1834015 L7.17807281,51.8449506 C8.45873867,50.6117169 9.68461395,49.4515889 10.6237911,48.5825382 C11.0849256,48.1558356 11.4656734,47.8097549 11.7473381,47.5617026 C11.9590779,47.3765014 11.9590779,47.3765014 12.1591909,47.2106547 C12.1575999,47.140747 12.1568021,47.1056915 12.4331943,47.0020793 C13.6932247,46.0050287 15.2146274,45.4999875 16.872155,45.4999875 C18.0661378,45.4999875 19.2103119,45.7640277 20.2631027,46.2904231 L20.6087731,46.4899381 L28.0589876,51.4062834 L28.0589876,20.5178468 C28.0589876,18.3226426 28.8822119,16.0413183 30.4237852,14.499745 C32.2054178,12.7181124 34.6915411,11.5390131 37.5585847,11.5390131 C38.538859,11.5390131 39.4592195,11.6736456 40.318217,11.9229179 C40.4881258,9.95908592 41.2445477,8.07928081 42.5731304,6.75069803 C44.4448067,4.87902176 46.7100796,3.79979884 49.9705322,3.79979884 C53.2438648,3.79979884 55.1603389,4.78791407 57.1231228,6.75069803 C57.4317639,7.05933905 57.709527,7.39772802 57.9562322,7.76000767 C59.2835415,7.17529298 60.7961819,6.8905628 62.3824797,6.8905628 C65.250713,6.8905628 68.0152563,7.97514742 69.5704352,9.78089073 C71.1129018,11.3233572 71.9352328,13.6432166 71.9352328,15.8451136 L71.9352328,16.6234908 Z" id="path-1"></path>
    </defs>
    <g id="Error-Screens" stroke="none" stroke-width="1" fill="none" fill-rule="evenodd">
        <g id="Error---Revoked-2" transform="translate(-1541.000000, -316.000000)">
            <g id="Revoke-24" transform="translate(1541.000000, 316.000000)">
                <mask id="mask-2" fill="white">
                    <use xlink:href="#path-1"></use>
                </mask>
                <use id="Icon" fill="#A70A0E" fill-rule="nonzero" xlink:href="#path-1"></use>
            </g>
        </g>
    </g>
</svg>